HIERARCHY
ROOT Hips
{
	OFFSET 0.000000 71.427986 0.000000
	CHANNELS 6 Xposition Yposition Zposition Xrotation Yrotation Zrotation
	JOINT Pelvis
	{
		OFFSET 0.000000 0.000000 0.000000
		CHANNELS 3 Xrotation Yrotation Zrotation
		JOINT LeftUpLeg
		{
			OFFSET 6.797100 -2.508499 -1.318700
			CHANNELS 3 Xrotation Yrotation Zrotation
			JOINT LeftLeg
			{
				OFFSET 0.069008 -29.241863 0.690200
				CHANNELS 3 Xrotation Yrotation Zrotation
				JOINT LeftFoot
				{
					OFFSET -0.069008 -29.568123 -0.266800
					CHANNELS 3 Xrotation Yrotation Zrotation
					JOINT LeftToeBase
					{
						OFFSET 3.145500 -8.631000 16.059900
						CHANNELS 3 Xrotation Yrotation Zrotation
						End Site
						{
							OFFSET 0.000000 18.501587 0.000000
						}
					}
				}
			}
			JOINT Left_ShortSleeve
			{
				OFFSET 0.265923 -10.480953 1.153800
				CHANNELS 3 Xrotation Yrotation Zrotation
				End Site
				{
					OFFSET 1.725763 19.823879 0.000000
				}
			}
		}
		JOINT RightUpLeg
		{
			OFFSET -6.797100 -2.508499 -1.318700
			CHANNELS 3 Xrotation Yrotation Zrotation
			JOINT RightLeg
			{
				OFFSET -0.082453 -29.241932 0.688000
				CHANNELS 3 Xrotation Yrotation Zrotation
				JOINT RightFoot
				{
					OFFSET 0.082453 -29.568058 -0.264600
					CHANNELS 3 Xrotation Yrotation Zrotation
					JOINT RightToeBase
					{
						OFFSET -3.115300 -8.682800 16.113400
						CHANNELS 3 Xrotation Yrotation Zrotation
						End Site
						{
							OFFSET 0.000000 18.567114 0.000000
						}
					}
				}
			}
			JOINT Right_ShortSleeve
			{
				OFFSET -0.265923 -10.480953 1.153800
				CHANNELS 3 Xrotation Yrotation Zrotation
				End Site
				{
					OFFSET -1.725766 19.823910 0.000000
				}
			}
		}
	}
	JOINT Spine
	{
		OFFSET 0.000000 13.368103 0.470500
		CHANNELS 3 Xrotation Yrotation Zrotation
		JOINT Spine1
		{
			OFFSET 0.147000 13.837402 0.538800
			CHANNELS 3 Xrotation Yrotation Zrotation
			JOINT Spine2
			{
				OFFSET 0.168000 16.242897 -1.435500
				CHANNELS 3 Xrotation Yrotation Zrotation
				JOINT Neck
				{
					OFFSET 0.217200 18.631500 -1.679100
					CHANNELS 3 Xrotation Yrotation Zrotation
					JOINT Head
					{
						OFFSET 0.000000 6.599396 1.385900
						CHANNELS 3 Xrotation Yrotation Zrotation
						JOINT Hat
						{
							OFFSET -0.532200 27.220596 -10.096100
							CHANNELS 3 Xrotation Yrotation Zrotation
							End Site
							{
								OFFSET 0.000000 22.029861 0.000000
							}
						}
						JOINT HairD
						{
							OFFSET -10.777400 17.437393 -1.325900
							CHANNELS 3 Xrotation Yrotation Zrotation
							JOINT HairD1
							{
								OFFSET -3.290299 -11.051193 1.062200
								CHANNELS 3 Xrotation Yrotation Zrotation
								End Site
								{
									OFFSET 0.000000 11.579437 0.000000
								}
							}
						}
						JOINT HairB
						{
							OFFSET -10.777400 17.437393 1.467900
							CHANNELS 3 Xrotation Yrotation Zrotation
							JOINT HairB1
							{
								OFFSET -1.561200 -12.956299 3.590200
								CHANNELS 3 Xrotation Yrotation Zrotation
								End Site
								{
									OFFSET 0.000000 13.534866 0.000000
								}
							}
						}
						JOINT HairA
						{
							OFFSET 9.713100 17.437393 1.467900
							CHANNELS 3 Xrotation Yrotation Zrotation
							JOINT HairA1
							{
								OFFSET 1.561200 -12.956299 3.590200
								CHANNELS 3 Xrotation Yrotation Zrotation
								End Site
								{
									OFFSET 0.000000 13.534866 0.000000
								}
							}
						}
						JOINT HairC
						{
							OFFSET 9.713100 17.437393 -1.325900
							CHANNELS 3 Xrotation Yrotation Zrotation
							JOINT HairC1
							{
								OFFSET 3.290300 -11.051193 1.062200
								CHANNELS 3 Xrotation Yrotation Zrotation
								End Site
								{
									OFFSET 0.000000 11.579437 0.000000
								}
							}
						}
					}
				}
				JOINT LeftShoulder
				{
					OFFSET 5.101800 15.108002 -2.763700
					CHANNELS 3 Xrotation Yrotation Zrotation
					JOINT LeftArm
					{
						OFFSET 9.825497 2.506317 -1.597400
						CHANNELS 3 Xrotation Yrotation Zrotation
						JOINT LeftForeArm
						{
							OFFSET 21.966244 0.000000 0.000000
							CHANNELS 3 Xrotation Yrotation Zrotation
							JOINT LeftHand
							{
								OFFSET 33.879036 0.000000 0.000000
								CHANNELS 3 Xrotation Yrotation Zrotation
								JOINT LeftHandThumb1
								{
									OFFSET 6.715286 -2.359680 3.363841
									CHANNELS 3 Xrotation Yrotation Zrotation
									JOINT LeftHandThumb2
									{
										OFFSET 2.507072 -1.447464 1.447461
										CHANNELS 3 Xrotation Yrotation Zrotation
										JOINT LeftHandThumb3
										{
											OFFSET 2.898338 -1.673355 1.673357
											CHANNELS 3 Xrotation Yrotation Zrotation
											End Site
											{
												OFFSET -0.295959 3.727692 -0.131651
											}
										}
									}
								}
								JOINT LeftHandIndex1
								{
									OFFSET 14.190811 -0.254547 3.840278
									CHANNELS 3 Xrotation Yrotation Zrotation
									JOINT LeftHandIndex2
									{
										OFFSET 3.551727 0.000000 -0.000000
										CHANNELS 3 Xrotation Yrotation Zrotation
										JOINT LeftHandIndex3
										{
											OFFSET 2.894196 0.000000 0.000000
											CHANNELS 3 Xrotation Yrotation Zrotation
											End Site
											{
												OFFSET -1.000603 2.690872 0.366626
											}
										}
									}
								}
								JOINT LeftHandMiddle1
								{
									OFFSET 13.776489 0.000000 0.000000
									CHANNELS 3 Xrotation Yrotation Zrotation
									JOINT LeftHandMiddle2
									{
										OFFSET 3.438232 0.000000 0.000000
										CHANNELS 3 Xrotation Yrotation Zrotation
										JOINT LeftHandMiddle3
										{
											OFFSET 3.691551 0.000000 0.000000
											CHANNELS 3 Xrotation Yrotation Zrotation
											End Site
											{
												OFFSET -1.082298 3.499527 0.457670
											}
										}
									}
								}
								JOINT LeftHandRing1
								{
									OFFSET 13.966164 -0.268127 -3.067488
									CHANNELS 3 Xrotation Yrotation Zrotation
									JOINT LeftHandRing2
									{
										OFFSET 3.162567 0.000000 0.000000
										CHANNELS 3 Xrotation Yrotation Zrotation
										JOINT LeftHandRing3
										{
											OFFSET 3.324348 0.000000 0.000000
											CHANNELS 3 Xrotation Yrotation Zrotation
											End Site
											{
												OFFSET -0.861900 3.184998 0.405154
											}
										}
									}
								}
								JOINT LeftHandPinky1
								{
									OFFSET 13.131393 -0.168503 -5.746925
									CHANNELS 3 Xrotation Yrotation Zrotation
									JOINT LeftHandPinky2
									{
										OFFSET 2.849182 0.000000 0.000000
										CHANNELS 3 Xrotation Yrotation Zrotation
										JOINT LeftHandPinky3
										{
											OFFSET 2.805038 0.000000 0.000000
											CHANNELS 3 Xrotation Yrotation Zrotation
											End Site
											{
												OFFSET -0.882500 2.642609 0.325652
											}
										}
									}
								}
							}
							JOINT Left_Sleeve
							{
								OFFSET 6.592125 -0.646545 0.805568
								CHANNELS 3 Xrotation Yrotation Zrotation
								End Site
								{
									OFFSET -0.000179 20.275787 -0.000000
								}
							}
						}
					}
				}
				JOINT RightShoulder
				{
					OFFSET -5.731700 15.108002 -2.763700
					CHANNELS 3 Xrotation Yrotation Zrotation
					JOINT RightArm
					{
						OFFSET -9.825497 2.506317 -1.597400
						CHANNELS 3 Xrotation Yrotation Zrotation
						JOINT RightForeArm
						{
							OFFSET -21.966242 0.000000 0.000000
							CHANNELS 3 Xrotation Yrotation Zrotation
							JOINT RightHand
							{
								OFFSET -33.879032 0.000000 0.000000
								CHANNELS 3 Xrotation Yrotation Zrotation
								JOINT RightHandThumb1
								{
									OFFSET -6.715286 -2.359680 3.363841
									CHANNELS 3 Xrotation Yrotation Zrotation
									JOINT RightHandThumb2
									{
										OFFSET -2.507072 -1.447464 1.447461
										CHANNELS 3 Xrotation Yrotation Zrotation
										JOINT RightHandThumb3
										{
											OFFSET -2.898338 -1.673355 1.673357
											CHANNELS 3 Xrotation Yrotation Zrotation
											End Site
											{
												OFFSET 0.295959 3.727692 -0.131651
											}
										}
									}
								}
								JOINT RightHandIndex1
								{
									OFFSET -14.190811 -0.254547 3.840278
									CHANNELS 3 Xrotation Yrotation Zrotation
									JOINT RightHandIndex2
									{
										OFFSET -3.551727 0.000000 -0.000000
										CHANNELS 3 Xrotation Yrotation Zrotation
										JOINT RightHandIndex3
										{
											OFFSET -2.894196 0.000000 0.000000
											CHANNELS 3 Xrotation Yrotation Zrotation
											End Site
											{
												OFFSET 1.000603 2.690872 0.366626
											}
										}
									}
								}
								JOINT RightHandMiddle1
								{
									OFFSET -13.776489 0.000000 0.000000
									CHANNELS 3 Xrotation Yrotation Zrotation
									JOINT RightHandMiddle2
									{
										OFFSET -3.438232 0.000000 0.000000
										CHANNELS 3 Xrotation Yrotation Zrotation
										JOINT RightHandMiddle3
										{
											OFFSET -3.691551 0.000000 0.000000
											CHANNELS 3 Xrotation Yrotation Zrotation
											End Site
											{
												OFFSET 1.082298 3.499527 0.457670
											}
										}
									}
								}
								JOINT RightHandRing1
								{
									OFFSET -13.966164 -0.268127 -3.067488
									CHANNELS 3 Xrotation Yrotation Zrotation
									JOINT RightHandRing2
									{
										OFFSET -3.162567 0.000000 0.000000
										CHANNELS 3 Xrotation Yrotation Zrotation
										JOINT RightHandRing3
										{
											OFFSET -3.324348 0.000000 0.000000
											CHANNELS 3 Xrotation Yrotation Zrotation
											End Site
											{
												OFFSET 0.861900 3.184998 0.405154
											}
										}
									}
								}
								JOINT RightHandPinky1
								{
									OFFSET -13.131393 -0.168503 -5.746925
									CHANNELS 3 Xrotation Yrotation Zrotation
									JOINT RightHandPinky2
									{
										OFFSET -2.849182 0.000000 0.000000
										CHANNELS 3 Xrotation Yrotation Zrotation
										JOINT RightHandPinky3
										{
											OFFSET -2.805038 0.000000 0.000000
											CHANNELS 3 Xrotation Yrotation Zrotation
											End Site
											{
												OFFSET 0.882500 2.642609 0.325652
											}
										}
									}
								}
							}
							JOINT Right_Sleeve
							{
								OFFSET -6.592125 -0.646545 0.805568
								CHANNELS 3 Xrotation Yrotation Zrotation
								End Site
								{
									OFFSET 0.000179 20.275787 -0.000000
								}
							}
						}
					}
				}
				JOINT Bind_Right_JacketString
				{
					OFFSET -3.534800 11.969597 7.200700
					CHANNELS 3 Xrotation Yrotation Zrotation
					JOINT Bind_Right_JacketString1
					{
						OFFSET -0.319900 -6.102600 2.794100
						CHANNELS 3 Xrotation Yrotation Zrotation
						End Site
						{
							OFFSET 0.000000 6.719452 0.000000
						}
					}
				}
				JOINT Bind_Left_JacketString
				{
					OFFSET 2.904800 11.969597 7.200700
					CHANNELS 3 Xrotation Yrotation Zrotation
					JOINT Bind_Left_JacketString1
					{
						OFFSET 0.364800 -5.904503 3.186800
						CHANNELS 3 Xrotation Yrotation Zrotation
						End Site
						{
							OFFSET 0.000000 6.719513 0.000000
						}
					}
				}
				JOINT HairE
				{
					OFFSET 5.915200 17.612701 -11.592200
					CHANNELS 3 Xrotation Yrotation Zrotation
					JOINT HairE1
					{
						OFFSET 0.289200 -7.171898 -1.284500
						CHANNELS 3 Xrotation Yrotation Zrotation
						End Site
						{
							OFFSET 0.000000 7.291756 0.000000
						}
					}
				}
				JOINT HairF
				{
					OFFSET -0.864800 17.612701 -11.592200
					CHANNELS 3 Xrotation Yrotation Zrotation
					JOINT HairF1
					{
						OFFSET 0.000000 -14.087097 -2.127501
						CHANNELS 3 Xrotation Yrotation Zrotation
						End Site
						{
							OFFSET 0.000000 14.246841 0.000000
						}
					}
				}
				JOINT HairG
				{
					OFFSET -8.087700 17.612701 -11.592200
					CHANNELS 3 Xrotation Yrotation Zrotation
					JOINT HairG1
					{
						OFFSET -0.293600 -6.081398 -0.910100
						CHANNELS 3 Xrotation Yrotation Zrotation
						End Site
						{
							OFFSET 0.000000 6.156120 0.000000
						}
					}
				}
			}
		}
	}
	JOINT Pouch
	{
		OFFSET 0.000000 4.394501 10.847300
		CHANNELS 3 Xrotation Yrotation Zrotation
		End Site
		{
			OFFSET 0.000000 21.880577 0.000000
		}
	}
	JOINT Bag
	{
		OFFSET -13.229000 4.813004 -0.593300
		CHANNELS 3 Xrotation Yrotation Zrotation
		End Site
		{
			OFFSET 0.000000 21.880577 0.000000
		}
	}
	JOINT OccupyGuyFacialAnim_Joint
	{
		OFFSET 1.000000 -70.206398 -1.655000
		CHANNELS 3 Xrotation Yrotation Zrotation
		End Site
		{
			OFFSET 0.000000 21.880577 0.000000
		}
	}
}
MOTION
Frames: 5
Frame Time: 0.033333
-67.425423 68.576736 -49.289337 1.853107 49.877883 -0.986738 -0.000000 -0.000002 0.000000 -8.399992 7.544645 -5.124180 28.581567 -1.535840 -1.060389 -21.057309 -1.490928 7.197469 -0.000000 -0.000002 -0.000000 -0.000001 -0.000000 -0.000000 -35.674027 -8.857152 -9.084540 42.875348 -3.300151 7.747939 -10.159140 -2.072165 1.530116 -0.000000 -0.000002 0.000000 0.000003 -0.000003 -0.000004 2.296804 -0.162573 -0.929692 4.310088 -0.382936 -1.239967 4.310607 -0.307636 -1.256506 4.083758 -4.316740 -9.738980 -10.550505 -33.163341 11.403429 0.000000 -0.000000 -0.000000 0.000000 -0.000000 -0.000000 0.000000 -0.000000 0.000000 0.000000 -0.000000 0.000000 -0.000000 -0.000001 0.000000 0.000000 -0.000000 0.000000 -0.000000 -0.000001 0.000000 0.000000 -0.000000 -0.000000 0.000000 -0.000000 -0.000000 0.723269 -1.561935 -17.818025 5.981632 21.304122 -63.096406 -0.000019 -48.432059 -0.000014 -13.978884 55.142060 10.395311 -41.212678 4.259364 -13.739796 36.116568 14.793059 26.427095 -0.000001 -0.000002 -0.000003 -11.550845 -23.324515 -25.962785 0.411887 2.159697 -21.592661 0.000003 0.000001 -0.000000 -5.506603 6.265429 -79.782552 6.424815 5.822968 -95.637142 0.000003 0.000003 -0.000001 7.447524 8.004192 -107.730962 4.118057 5.589399 -72.743024 -0.000001 0.000002 -0.000003 9.913306 6.850371 -118.451914 2.118666 4.509214 -50.315630 -0.000001 0.000004 -0.000002 0.000000 0.000001 -0.000000 0.614522 -0.532917 10.423803 14.830274 7.215170 56.902104 -0.000001 50.054908 -0.000009 -7.753277 -11.351958 -1.322804 6.948339 22.104999 6.455977 -11.292814 -47.963938 -12.560553 0.000002 -0.000001 0.000002 -4.732081 3.547750 33.895247 0.690859 -2.442789 31.579854 0.000002 0.000000 -0.000003 -3.598739 0.849629 37.922822 2.274337 -4.002553 59.198520 0.000001 0.000002 -0.000004 2.614923 -6.486294 55.723402 0.865712 -2.706435 35.470501 -0.000001 -0.000001 0.000003 1.448567 -5.765603 59.467035 0.912972 -2.771490 36.459406 -0.000001 0.000001 0.000001 0.000002 -0.000002 0.000002 -0.000001 -0.000001 0.000000 -0.000000 -0.000003 0.000001 -0.000001 -0.000001 0.000000 -0.000001 -0.000001 0.000000 -0.000001 -0.000001 0.000000 -0.000000 -0.000003 0.000001 -0.000001 -0.000001 0.000000 -0.000001 -0.000001 0.000000 -0.000001 -0.000001 0.000000 -0.000000 -0.000003 0.000001 -0.000000 -0.000002 0.000000 -0.000000 -0.000002 0.000000 -0.000000 -0.000002 0.000000 
-68.457939 68.665047 -50.010811 2.007565 51.456224 -1.757287 -0.000000 0.000000 -0.000000 -10.325359 7.846768 -3.993601 29.528769 -3.507322 -1.175819 -20.027032 -1.522948 7.736304 -0.000000 0.000000 0.000000 -0.000000 -0.000000 0.000001 -34.170327 -8.797003 -8.660151 47.485995 -4.838524 6.997517 -11.772544 -1.786856 -0.952801 -0.000000 -0.000001 0.000000 0.000003 0.000005 0.000000 2.261780 -0.006390 -0.848305 4.226467 -0.233461 -1.254525 4.225673 -0.162681 -1.266642 4.209462 -4.453122 -9.763501 -9.779397 -34.000371 11.943708 0.000000 -0.000001 -0.000000 0.000000 -0.000001 -0.000000 0.000000 -0.000001 0.000000 0.000000 -0.000001 -0.000000 -0.000000 0.000001 -0.000000 0.000000 -0.000001 -0.000000 -0.000000 0.000001 -0.000000 0.000000 -0.000001 -0.000000 0.000000 -0.000001 -0.000000 0.728482 -1.547808 -18.069288 9.095441 19.453606 -63.478658 0.000024 -49.392950 0.000015 -9.018773 54.777349 10.543446 -41.212877 4.259239 -13.739924 36.116620 14.793100 26.427100 0.000001 -0.000000 -0.000001 -11.551059 -23.324676 -25.963038 0.411921 2.159742 -21.592958 -0.000000 -0.000000 0.000002 -5.506643 6.265496 -79.782975 6.424805 5.822948 -95.637210 0.000003 -0.000000 0.000001 7.447567 8.004178 -107.731051 4.118057 5.589402 -72.743065 0.000001 0.000003 -0.000000 9.913285 6.850378 -118.451900 2.118673 4.509232 -50.315750 -0.000000 -0.000002 0.000003 0.000001 0.000001 0.000000 0.604001 -0.416670 10.134772 14.511379 7.154676 56.997119 0.000004 49.197743 0.000001 -7.418483 -11.798914 -1.281955 6.948431 22.105016 6.456066 -11.069637 -48.295144 -12.380105 0.000004 -0.000002 0.000001 -4.534404 3.635815 32.667500 0.695723 -2.450645 31.693280 0.000001 -0.000003 -0.000000 -3.484113 0.929657 36.858494 2.044552 -3.856643 55.846512 0.000001 -0.000002 -0.000003 2.614947 -6.486316 55.723665 0.801758 -2.614448 34.092623 0.000000 -0.000002 0.000003 1.448491 -5.765580 59.467534 0.852637 -2.688015 35.192625 -0.000000 -0.000001 0.000000 -0.000001 -0.000000 -0.000001 0.000000 0.000001 -0.000000 0.000000 -0.000000 -0.000000 0.000000 0.000001 -0.000000 0.000000 0.000001 -0.000000 0.000000 0.000001 -0.000000 0.000000 -0.000000 0.000000 0.000000 0.000001 -0.000000 0.000000 0.000001 -0.000000 0.000000 0.000001 -0.000000 0.000000 -0.000000 0.000000 -0.000000 0.000000 -0.000000 -0.000000 0.000000 -0.000000 -0.000000 0.000000 -0.000000 
-69.470146 68.708351 -50.684643 2.173356 52.890376 -2.468607 -0.000000 0.000000 -0.000000 -12.212646 7.844275 -3.132839 30.453211 -4.998707 -1.155362 -19.042936 -1.509545 8.088540 0.000000 -0.000002 0.000000 -0.000000 0.000000 0.000001 -31.880328 -8.765111 -8.088903 51.137490 -6.466198 6.406099 -12.537825 -1.140827 -2.477668 0.000000 -0.000000 0.000000 -0.000001 -0.000003 -0.000003 2.217567 0.203877 -0.821725 4.137393 -0.015892 -1.302543 4.134897 0.055444 -1.309615 4.249544 -4.547631 -9.910014 -8.989323 -34.709785 12.492929 -0.000000 -0.000001 -0.000001 -0.000000 -0.000001 -0.000001 -0.000000 -0.000001 -0.000001 -0.000000 -0.000001 -0.000000 -0.000000 0.000001 0.000000 -0.000000 -0.000001 -0.000000 -0.000000 0.000001 0.000000 -0.000000 -0.000001 -0.000001 -0.000000 -0.000001 -0.000001 0.737053 -1.450202 -18.149469 9.857093 21.059592 -64.742530 0.000024 -49.533949 0.000010 -6.784318 54.030430 12.556091 -41.212870 4.259191 -13.739952 36.116613 14.793075 26.427117 -0.000000 0.000001 -0.000000 -11.551065 -23.324714 -25.963088 0.411901 2.159737 -21.592998 0.000003 0.000001 -0.000002 -5.506628 6.265505 -79.783044 6.424820 5.822933 -95.637238 0.000004 0.000004 0.000005 7.447595 8.004175 -107.731071 4.118051 5.589412 -72.743092 0.000000 -0.000001 -0.000003 9.913324 6.850362 -118.451886 2.118684 4.509224 -50.315770 0.000001 -0.000000 -0.000001 0.000001 0.000001 -0.000001 0.602382 -0.456096 10.082642 14.455906 7.354463 56.881249 0.000010 48.694744 -0.000003 -7.326089 -12.198469 -1.228318 6.948376 22.105018 6.456034 -10.853853 -48.595553 -12.196448 0.000001 0.000003 0.000001 -4.351425 3.704330 31.551321 0.706861 -2.468571 31.952899 -0.000000 -0.000003 -0.000000 -3.377884 0.992187 35.911885 1.842390 -3.711774 52.784245 0.000000 0.000001 0.000004 2.614923 -6.486311 55.723613 0.748484 -2.534049 32.906680 -0.000000 0.000001 0.000000 1.448502 -5.765589 59.467377 0.801810 -2.614531 34.094030 -0.000000 -0.000000 -0.000001 0.000001 -0.000000 -0.000001 -0.000000 -0.000002 -0.000000 0.000000 -0.000000 -0.000001 -0.000000 -0.000002 -0.000000 -0.000000 -0.000002 -0.000000 -0.000000 -0.000002 -0.000000 0.000000 -0.000000 -0.000001 -0.000000 -0.000002 -0.000000 -0.000000 -0.000002 -0.000000 -0.000000 -0.000002 -0.000000 0.000000 -0.000000 -0.000001 -0.000000 0.000000 -0.000000 -0.000000 0.000000 -0.000000 -0.000000 0.000000 -0.000000 
-70.456383 68.705124 -51.330273 2.295147 54.136913 -3.009778 -0.000000 0.000002 0.000000 -13.962239 8.117489 -2.291516 31.276778 -6.654883 -1.363512 -18.049149 -1.523085 8.603521 0.000000 0.000000 0.000000 0.000001 -0.000002 -0.000001 -28.941916 -9.347186 -7.457034 53.986119 -6.694443 5.524940 -13.221312 -0.702848 -4.102805 -0.000001 0.000006 -0.000001 -0.000002 -0.000003 -0.000001 2.176163 0.420799 -0.828956 4.052152 0.206137 -1.381782 4.047694 0.280373 -1.384236 4.424906 -4.581611 -10.371682 -7.995005 -35.325103 13.379296 -0.000000 -0.000001 -0.000000 -0.000000 -0.000001 -0.000000 -0.000000 -0.000001 0.000000 -0.000000 -0.000001 -0.000000 -0.000000 -0.000001 0.000000 -0.000000 -0.000001 -0.000000 -0.000000 -0.000001 0.000000 -0.000000 -0.000001 -0.000000 -0.000000 -0.000001 -0.000000 0.770157 -1.127131 -18.598267 10.680534 21.011774 -64.605503 0.000011 -49.283367 -0.000001 -5.858130 52.949795 14.704586 -41.212829 4.259271 -13.739889 36.116599 14.793095 26.427100 0.000001 -0.000000 -0.000004 -11.551023 -23.324640 -25.963000 0.411900 2.159722 -21.592909 0.000003 0.000001 -0.000000 -5.506641 6.265505 -79.782914 6.424823 5.822967 -95.637210 0.000001 0.000000 0.000001 7.447568 8.004192 -107.731023 4.118056 5.589373 -72.743058 -0.000000 0.000004 -0.000002 9.913306 6.850394 -118.451941 2.118685 4.509209 -50.315716 0.000000 -0.000000 -0.000001 0.000003 0.000000 0.000001 0.591284 -0.594948 9.754680 14.283270 7.943506 57.164128 0.000012 48.277628 -0.000005 -7.151873 -12.366542 -1.090202 6.948127 22.104995 6.455762 -10.651570 -48.859079 -12.015905 -0.000000 0.000000 -0.000000 -4.187420 3.753989 30.569352 0.723264 -2.494662 32.331995 -0.000001 0.000002 0.000001 -3.282723 1.037573 35.100004 1.670143 -3.574697 50.074012 -0.000001 0.000000 -0.000001 2.614881 -6.486287 55.723057 0.705737 -2.466795 31.926753 0.000000 -0.000002 0.000003 1.448659 -5.765645 59.466147 0.760554 -2.552578 33.178419 -0.000000 0.000001 -0.000003 0.000001 -0.000000 0.000002 0.000000 -0.000002 0.000000 0.000000 0.000002 -0.000000 0.000000 -0.000002 -0.000000 0.000000 -0.000002 -0.000000 0.000000 -0.000002 0.000000 0.000000 0.000002 -0.000000 0.000000 -0.000002 -0.000000 0.000000 -0.000002 -0.000000 0.000000 -0.000002 0.000000 0.000000 0.000002 -0.000000 -0.000000 0.000002 0.000000 -0.000000 0.000002 0.000000 -0.000000 0.000002 0.000000 
-71.413246 68.669098 -51.962482 2.316351 55.162233 -3.302513 0.000000 0.000000 0.000000 -15.543931 8.026995 -1.837909 31.970217 -7.653884 -1.496597 -17.065195 -1.488961 8.931059 0.000000 0.000000 0.000000 0.000001 0.000001 -0.000001 -25.480559 -9.944331 -6.648078 57.124154 -7.422058 4.554284 -16.544089 -0.355312 -5.296150 -0.000000 -0.000001 -0.000000 -0.000000 0.000001 -0.000001 2.118708 0.662153 -0.891922 3.935992 0.453900 -1.540768 3.929041 0.532718 -1.538395 4.888386 -4.657781 -10.885757 -6.988308 -36.052279 14.431534 -0.000000 -0.000000 0.000000 -0.000000 -0.000000 0.000000 -0.000000 -0.000000 0.000000 -0.000000 -0.000000 0.000000 0.000000 0.000002 -0.000000 -0.000000 -0.000000 0.000000 0.000000 0.000002 -0.000000 -0.000000 -0.000000 0.000000 -0.000000 -0.000000 0.000000 0.791804 -0.912072 -18.816515 11.282442 19.959327 -63.902034 0.000007 -48.399684 0.000003 -4.997002 51.749533 15.588906 -41.212736 4.259317 -13.739839 36.116603 14.793066 26.427090 0.000001 -0.000000 0.000001 -11.550926 -23.324570 -25.962893 0.411900 2.159730 -21.592788 0.000000 0.000000 0.000002 -5.506597 6.265462 -79.782709 6.424803 5.822966 -95.637176 0.000000 -0.000002 0.000004 7.447563 8.004189 -107.730982 4.118042 5.589369 -72.743072 0.000003 -0.000001 -0.000001 9.913327 6.850378 -118.451955 2.118672 4.509223 -50.315675 0.000001 -0.000000 0.000001 0.000002 0.000000 -0.000001 0.578192 -0.721527 9.392978 13.998737 8.649921 57.739783 -0.000011 47.954697 0.000016 -6.829164 -12.249137 -0.837978 6.947720 22.105004 6.455327 -10.469219 -49.081258 -11.846099 -0.000001 -0.000001 0.000001 -4.046020 3.786620 29.738924 0.743268 -2.525941 32.788347 -0.000001 -0.000004 -0.000000 -3.200834 1.067200 34.433944 1.528553 -3.451483 47.763458 -0.000002 0.000000 0.000001 2.614814 -6.486250 55.722131 0.672816 -2.413200 31.153490 -0.000003 -0.000001 -0.000000 1.448978 -5.765780 59.464064 0.728400 -2.502762 32.449262 0.000000 0.000001 -0.000003 0.000001 0.000000 0.000000 0.000001 0.000001 -0.000000 0.000001 -0.000003 -0.000000 0.000001 0.000001 -0.000000 0.000001 0.000001 -0.000000 0.000001 0.000001 -0.000000 0.000001 -0.000003 -0.000000 0.000001 0.000001 -0.000000 0.000001 0.000001 -0.000000 0.000001 0.000001 -0.000000 0.000001 -0.000003 -0.000000 0.000000 0.000000 0.000000 0.000000 0.000000 0.000000 0.000000 0.000000 0.000000 
